<?xml version="1.0" encoding="UTF-8"?>
<svg width="82px" height="75px" viewBox="0 0 82 75" version="1.1" xmlns="http://www.w3.org/2000/svg" xmlns:xlink="http://www.w3.org/1999/xlink">
    <!-- Generator: sketchtool 61 (101010) - https://sketch.com -->
    <title>683A0917-AD0B-4CE0-84CA-28A8925302DD</title>
    <desc>Created with sketchtool.</desc>
    <g id="Website" stroke="none" stroke-width="1" fill="none" fill-rule="evenodd">
        <g id="Homepage" transform="translate(-732.000000, -1081.000000)" fill="#333333">
            <path d="M796.103272,1081 C802.846452,1081 808.305328,1086.56049 808.305328,1093.41106 L808.305328,1093.41106 L808.305,1121.749 L810.013889,1121.74997 C812.219735,1121.74997 814,1123.56338 814,1125.79216 C814,1128.02094 812.219735,1129.83434 810.013889,1129.83434 L808.290869,1129.83457 C808.282119,1129.88798 808.26947,1129.94142 808.252747,1129.99455 L808.252747,1129.99455 L803.676778,1144.53251 C802.489327,1148.30839 799.034425,1150.87627 795.12975,1150.87627 L795.12975,1150.87627 L792.934,1150.876 L794.852592,1154.29831 C795.14023,1154.81146 794.98983,1155.45214 794.522696,1155.78652 L794.417792,1155.85333 C793.869474,1156.16235 793.175142,1155.96715 792.866958,1155.41736 L792.866958,1155.41736 L790.321,1150.876 L755.675,1150.876 L753.130195,1155.41736 C752.842556,1155.9305 752.21854,1156.13475 751.690814,1155.90846 L751.579361,1155.85333 C751.031043,1155.54431 750.836377,1154.84811 751.144561,1154.29831 L751.144561,1154.29831 L753.062,1150.876 L750.87025,1150.87627 C747.056811,1150.87627 743.673013,1148.42688 742.409901,1144.79425 L742.323308,1144.53278 L737.747253,1129.99455 C737.73053,1129.94142 737.717881,1129.88798 737.709131,1129.83457 L735.986111,1129.83434 C733.781082,1129.83434 732,1128.02061 732,1125.79216 C732,1123.56371 733.781082,1121.74997 735.986111,1121.74997 L737.715396,1121.74924 C738.24666,1118.79306 740.793931,1116.54802 743.863806,1116.54802 C745.018222,1116.54802 746.118307,1116.87424 747.070892,1117.46396 C748.026975,1115.1994 750.229172,1113.62808 752.787,1113.62808 C754.968604,1113.62808 756.937504,1114.77538 758.062685,1116.58463 C758.270563,1116.56043 758.476502,1116.54802 758.684167,1116.54802 C761.754042,1116.54802 764.301312,1118.79306 764.832576,1121.74924 L806.027,1121.749 L806.02755,1093.41106 C806.02755,1087.90875 801.729845,1083.43779 796.380865,1083.28781 L796.103272,1083.28392 C790.904339,1083.28392 786.633368,1087.36544 786.212959,1092.56699 C789.672073,1093.07989 792.322731,1096.10708 792.322731,1099.75756 L792.322731,1100.89952 L778.016008,1100.89952 L778.016008,1099.75756 C778.016008,1096.17642 780.565833,1093.1956 783.927635,1092.59819 C784.337789,1086.12667 789.628478,1081 796.103272,1081 Z M805.914,1129.834 L740.085,1129.834 L744.495448,1143.84531 C745.360349,1146.59252 747.81468,1148.47881 750.614778,1148.58739 L750.87025,1148.59234 L754.975361,1148.59211 C754.990052,1148.59165 755.004765,1148.59148 755.019492,1148.59159 L790.97766,1148.59159 C790.992388,1148.59148 791.007101,1148.59165 791.021792,1148.59211 L795.12975,1148.59234 C798.035484,1148.59234 800.614517,1146.67546 801.50453,1143.84538 L801.50453,1143.84538 L805.914,1129.834 Z M738.663042,1124.03495 L735.986111,1124.0339 C735.04702,1124.0339 734.277778,1124.81724 734.277778,1125.79216 C734.277778,1126.76707 735.04702,1127.55042 735.986111,1127.55042 L810.013889,1127.55042 C810.953654,1127.55042 811.722222,1126.76754 811.722222,1125.79216 C811.722222,1124.81677 810.953654,1124.0339 810.013889,1124.0339 L763.884,1124.033 L763.7955,1124.03842 C763.765403,1124.03842 763.735579,1124.03725 763.70607,1124.03495 L738.841,1124.033 L738.752472,1124.03842 C738.722375,1124.03842 738.692551,1124.03725 738.663042,1124.03495 Z M743.863806,1118.83194 C742.061532,1118.83194 740.535571,1120.06111 740.051497,1121.7497 L748.117,1121.749 L746.853936,1120.25593 C746.141544,1119.41403 745.159806,1118.90323 744.093522,1118.83886 Z M752.787,1115.912 C750.739061,1115.912 749.039427,1117.51946 748.856939,1119.61639 L748.856939,1119.61639 L748.671,1121.749 L762.496475,1121.7497 C762.030228,1120.12329 760.597419,1118.9231 758.882119,1118.83691 L758.684167,1118.83194 C758.393015,1118.83194 758.087165,1118.87664 757.729198,1118.96753 L757.729198,1118.96753 L756.794267,1119.20493 L756.406718,1118.3194 C755.769557,1116.86351 754.363408,1115.912 752.787,1115.912 Z M779.675369,1114.32332 L779.799464,1114.33002 C780.370081,1114.39202 780.814258,1114.87664 780.814258,1115.46528 L780.814258,1115.46528 L780.814258,1116.39335 C780.814258,1117.02404 780.30436,1117.53531 779.675369,1117.53531 C779.046378,1117.53531 778.536481,1117.02404 778.536481,1116.39335 L778.536481,1116.39335 L778.536481,1115.46528 C778.536481,1114.83459 779.046378,1114.32332 779.675369,1114.32332 L779.675369,1114.32332 Z M790.569411,1112.93156 L790.693506,1112.93826 C791.264122,1113.00026 791.7083,1113.48488 791.7083,1114.07352 L791.7083,1114.07352 L791.7083,1116.3937 C791.7083,1117.02439 791.198402,1117.53566 790.569411,1117.53566 C789.94042,1117.53566 789.430522,1117.02439 789.430522,1116.3937 L789.430522,1116.3937 L789.430522,1114.07352 C789.430522,1113.44283 789.94042,1112.93156 790.569411,1112.93156 L790.569411,1112.93156 Z M785.122333,1114.32332 L785.246428,1114.33002 C785.817044,1114.39202 786.261222,1114.87664 786.261222,1115.46528 L786.261222,1115.46528 L786.261222,1116.39335 C786.261222,1117.02404 785.751324,1117.53531 785.122333,1117.53531 C784.493342,1117.53531 783.983444,1117.02404 783.983444,1116.39335 L783.983444,1116.39335 L783.983444,1115.46528 C783.983444,1114.83459 784.493342,1114.32332 785.122333,1114.32332 L785.122333,1114.32332 Z M785.122333,1107.50664 L785.246428,1107.51334 C785.817044,1107.57534 786.261222,1108.05996 786.261222,1108.6486 L786.261222,1108.6486 L786.261222,1110.96878 C786.261222,1111.59946 785.751324,1112.11074 785.122333,1112.11074 C784.493342,1112.11074 783.983444,1111.59946 783.983444,1110.96878 L783.983444,1110.96878 L783.983444,1108.6486 C783.983444,1108.01791 784.493342,1107.50664 785.122333,1107.50664 L785.122333,1107.50664 Z M779.675369,1108.61858 L779.799464,1108.62528 C780.370081,1108.68728 780.814258,1109.1719 780.814258,1109.76054 L780.814258,1109.76054 L780.814258,1110.92063 C780.814258,1111.55132 780.30436,1112.06259 779.675369,1112.06259 C779.046378,1112.06259 778.536481,1111.55132 778.536481,1110.92063 L778.536481,1110.92063 L778.536481,1109.76054 C778.536481,1109.12986 779.046378,1108.61858 779.675369,1108.61858 L779.675369,1108.61858 Z M790.569411,1107.55478 L790.693506,1107.56148 C791.264122,1107.62348 791.7083,1108.1081 791.7083,1108.69674 L791.7083,1108.69674 L791.7083,1109.85683 C791.7083,1110.48752 791.198402,1110.99879 790.569411,1110.99879 C789.94042,1110.99879 789.430522,1110.48752 789.430522,1109.85683 L789.430522,1109.85683 L789.430522,1108.69674 C789.430522,1108.06605 789.94042,1107.55478 790.569411,1107.55478 L790.569411,1107.55478 Z M779.675369,1102.08171 L779.799464,1102.08841 C780.370081,1102.15041 780.814258,1102.63503 780.814258,1103.22368 L780.814258,1103.22368 L780.814258,1105.54385 C780.814258,1106.17454 780.30436,1106.68582 779.675369,1106.68582 C779.046378,1106.68582 778.536481,1106.17454 778.536481,1105.54385 L778.536481,1105.54385 L778.536481,1103.22368 C778.536481,1102.59299 779.046378,1102.08171 779.675369,1102.08171 L779.675369,1102.08171 Z M790.569411,1102.08206 L790.693506,1102.08876 C791.264122,1102.15076 791.7083,1102.63538 791.7083,1103.22402 L791.7083,1103.22402 L791.7083,1104.15209 C791.7083,1104.78278 791.198402,1105.29406 790.569411,1105.29406 C789.94042,1105.29406 789.430522,1104.78278 789.430522,1104.15209 L789.430522,1104.15209 L789.430522,1103.22402 C789.430522,1102.59334 789.94042,1102.08206 790.569411,1102.08206 L790.569411,1102.08206 Z M785.122333,1102.08171 L785.246428,1102.08841 C785.817044,1102.15041 786.261222,1102.63503 786.261222,1103.22368 L786.261222,1103.22368 L786.261222,1104.15175 C786.261222,1104.78244 785.751324,1105.29371 785.122333,1105.29371 C784.493342,1105.29371 783.983444,1104.78244 783.983444,1104.15175 L783.983444,1104.15175 L783.983444,1103.22368 C783.983444,1102.59299 784.493342,1102.08171 785.122333,1102.08171 L785.122333,1102.08171 Z M785.169369,1094.7731 C782.863617,1094.7731 780.927391,1096.41055 780.42221,1098.6156 L789.916461,1098.6156 C789.411094,1096.4108 787.474464,1094.7731 785.169369,1094.7731 Z" id="icons/bathroom"></path>
        </g>
    </g>
</svg>