<?xml version="1.0" encoding="UTF-8"?>
<svg width="84px" height="76px" viewBox="0 0 84 76" version="1.1" xmlns="http://www.w3.org/2000/svg" xmlns:xlink="http://www.w3.org/1999/xlink">
    <!-- Generator: sketchtool 61 (101010) - https://sketch.com -->
    <title>86AE7853-D014-426A-9DB8-7BABA98E9E36</title>
    <desc>Created with sketchtool.</desc>
    <g id="Website" stroke="none" stroke-width="1" fill="none" fill-rule="evenodd">
        <g id="Homepage" transform="translate(-945.000000, -1081.000000)" fill="#333333" fill-rule="nonzero">
            <g id="Group-7" transform="translate(897.000000, 1050.000000)">
                <g id="icons/kitchen" transform="translate(48.406250, 30.312500)">
                    <path d="M0.356418919,53.1423185 L81.9159725,53.1423185 L81.9159725,43.9817064 L0.356418919,43.9817064 L0.356418919,53.1423185 Z M2.65783242,50.8521655 L2.65783242,46.2718594 L79.614559,46.2718594 L79.614559,50.8521655 L2.65783242,50.8521655 Z" id="Stroke-1"></path>
                    <polygon id="Stroke-3" points="9.32773045 74.0062997 9.32773045 52.2498459 7.02631695 52.2498459 7.02631695 76.2964527 16.5380413 76.2964527 16.5380413 52.2498459 14.2366278 52.2498459 14.2366278 74.0062997"></polygon>
                    <polygon id="Stroke-4" points="68.0364846 74.0062997 68.0364846 52.2498459 65.7350711 52.2498459 65.7350711 76.2964527 75.2467955 76.2964527 75.2467955 52.2498459 72.945382 52.2498459 72.945382 74.0062997"></polygon>
                    <path d="M25.9991708,45.337935 L25.9991708,44.4287442 C25.9991708,40.7291059 22.8729452,37.750658 19.0417604,37.750658 L7.31418984,37.750658 C3.48218342,37.750658 0.356779434,40.7287488 0.356779434,44.4287442 L0.356779434,45.337935 L2.65819293,45.337935 L2.65819293,44.4287442 C2.65819293,42.0163212 4.73142306,40.040811 7.31418984,40.040811 L19.0417604,40.040811 C21.6237755,40.040811 23.6977573,42.016755 23.6977573,44.4287442 L23.6977573,45.337935 L25.9991708,45.337935 Z" id="Stroke-5"></path>
                    <polygon id="Stroke-6" points="5.28442155 22.7472345 17.4281849 12.0293055 15.9010972 10.3159555 2.36654033 22.2613809 12.2868079 39.7587498 14.2912199 38.6334264"></polygon>
                    <path d="M26.9678259,6.48539413 L19.2836686,14.0547292 L13.2160585,8.46038238 L20.9002157,0.891047297 L26.9678259,6.48539413 Z M20.9528555,4.06164645 L16.5429181,8.40568745 L19.2310288,10.8841301 L23.6409662,6.54008906 L20.9528555,4.06164645 Z" id="Stroke-7"></path>
                    <path d="M37.9596062,10.8524239 L24.228302,24.377245 L23.4199603,23.6323371 L21.7024785,22.0496329 C17.7702517,18.4240361 17.6661609,12.4264071 21.4708698,8.67705202 C25.2499505,4.95563133 31.4566288,4.85782759 35.3605173,8.45729598 L37.9596062,10.8524239 Z M33.7965732,10.1374019 C30.7959099,7.37072652 25.992434,7.44641884 23.0899675,10.3046003 C20.2167395,13.1360265 20.2947262,17.6295596 23.2664226,20.369527 L24.1753366,21.2071148 L34.6322219,10.9074739 L33.7965732,10.1374019 Z" id="Stroke-8"></path>
                    <path d="M23.1320312,23.2150826 L26.359847,31.2947425 C26.5946216,31.8824151 27.2636893,32.1694268 27.8542515,31.9358008 C28.4448138,31.7021749 28.7332366,31.0363809 28.4984619,30.4487082 L25.2706461,22.3690483 C25.0358715,21.7813756 24.3668038,21.494364 23.7762416,21.7279899 C23.1856794,21.9616158 22.8972565,22.6274099 23.1320312,23.2150826 Z" id="Stroke-9"></path>
                    <path d="M35.7968999,11.9117512 L44.5718482,16.114182 C45.1444988,16.3884315 45.83214,16.1488009 46.1077379,15.5789522 C46.3833358,15.0091035 46.142527,14.3248268 45.5698764,14.0505774 L36.7949281,9.84814662 C36.2222776,9.57389721 35.5346363,9.81352776 35.2590385,10.3833764 C34.9834406,10.9532251 35.2242494,11.6375018 35.7968999,11.9117512 Z" id="Stroke-10"></path>
                    <path d="M40.6387456,8.20848541 C40.6387456,6.92510787 41.7518026,5.86451378 43.149675,5.86451378 L78.0199399,5.86451378 C79.4167408,5.86451378 80.5296676,6.92522417 80.5296676,8.20848541 L80.5296676,31.6791188 C80.5296676,32.9613512 79.4166105,34.0219453 78.0199399,34.0219453 L43.149675,34.0219453 C41.751933,34.0219453 40.6387456,32.9614675 40.6387456,31.6791188 L40.6387456,17.7916308 C40.6387456,17.1592225 40.1235566,16.6465543 39.4880388,16.6465543 C38.852521,16.6465543 38.3373321,17.1592225 38.3373321,17.7916308 L38.3373321,31.6791188 C38.3373321,34.2491615 40.5028043,36.3120984 43.149675,36.3120984 L78.0199399,36.3120984 C80.6658502,36.3120984 82.8310811,34.2489237 82.8310811,31.6791188 L82.8310811,8.20848541 C82.8310811,5.63777326 80.6660915,3.57436075 78.0199399,3.57436075 L43.149675,3.57436075 C40.502563,3.57436075 38.3373321,5.63753539 38.3373321,8.20848541 C38.3373321,8.84089371 38.852521,9.35356193 39.4880388,9.35356193 C40.1235566,9.35356193 40.6387456,8.84089371 40.6387456,8.20848541 Z" id="Stroke-11"></path>
                    <polygon id="Stroke-12" points="56.0873147 35.7736834 56.0873147 44.6926844 58.3887282 44.6926844 58.3887282 35.7736834"></polygon>
                    <polygon id="Stroke-13" points="63.5880809 35.7736834 63.5880809 44.6926844 65.8894944 44.6926844 65.8894944 35.7736834"></polygon>
                    <polygon id="Stroke-14" points="40.7302552 27.3371031 81.1813007 27.3371031 81.1813007 25.0469501 40.7302552 25.0469501"></polygon>
                    <path d="M63.0030868,30.807601 C63.0030868,31.7674284 62.207815,32.5252158 61.2515208,32.5252158 C60.2952267,32.5252158 59.4999549,31.7674284 59.4999549,30.807601 C59.4999549,29.8477737 60.2952267,29.0899863 61.2515208,29.0899863 C62.207815,29.0899863 63.0030868,29.8477737 63.0030868,30.807601 Z M60.7016733,30.807601 C60.7016733,31.1353462 60.9585753,31.3801393 61.2515208,31.3801393 C61.5444664,31.3801393 61.8013684,31.1353462 61.8013684,30.807601 C61.8013684,30.4798559 61.5444664,30.2350628 61.2515208,30.2350628 C60.9585753,30.2350628 60.7016733,30.4798559 60.7016733,30.807601 Z" id="Stroke-15"></path>
                    <path d="M71.6416401,43.6555886 C71.6416401,42.1523563 72.9433669,40.9119852 74.5719692,40.9119852 C76.2005715,40.9119852 77.5022984,42.1523563 77.5022984,43.6555886 C77.5022984,44.2879969 78.0174874,44.8006651 78.6530052,44.8006651 C79.2885229,44.8006651 79.8037119,44.2879969 79.8037119,43.6555886 C79.8037119,40.8647839 77.4498112,38.6218322 74.5719692,38.6218322 C71.6941273,38.6218322 69.3402266,40.8647839 69.3402266,43.6555886 C69.3402266,44.2879969 69.8554155,44.8006651 70.4909333,44.8006651 C71.1264511,44.8006651 71.6416401,44.2879969 71.6416401,43.6555886 Z" id="Stroke-16"></path>
                </g>
            </g>
        </g>
    </g>
</svg>