<?xml version="1.0" encoding="UTF-8"?>
<svg width="86px" height="69px" viewBox="0 0 86 69" version="1.1" xmlns="http://www.w3.org/2000/svg" xmlns:xlink="http://www.w3.org/1999/xlink">
    <!-- Generator: sketchtool 61 (101010) - https://sketch.com -->
    <title>D081ABC0-8E2F-4682-B521-F296B15708A8</title>
    <desc>Created with sketchtool.</desc>
    <g id="Website" stroke="none" stroke-width="1" fill="none" fill-rule="evenodd">
        <g id="Homepage" transform="translate(-944.000000, -866.000000)" fill="#333333" fill-rule="nonzero">
            <g id="UI/cards/insprations-2" transform="translate(897.000000, 832.000000)">
                <g id="icons/kitchen" transform="translate(47.406250, 34.312500)">
                    <path d="M61.9164951,40.0588824 L58.0562096,40.0588824 C52.8131517,40.0588824 48.5623549,44.3089027 48.5623549,49.5516375 L48.5623549,64.4085446 L61.9164951,64.4085446 L61.9164951,40.0588824 Z M59.5600762,62.0521257 L50.9187738,62.0521257 L50.9187738,49.5516375 C50.9187738,45.6104133 54.1144696,42.4153014 58.0562096,42.4153014 L59.5600762,42.4153014 L59.5600762,62.0521257 Z" id="Path"></path>
                    <path d="M4.03849493,41.2370919 L4.03849493,42.4153014 C7.97997701,42.4153014 11.1748311,45.6101554 11.1748311,49.5516375 L11.1748311,62.0521257 L2.53462838,62.0521257 L2.53462838,42.4153014 L4.03849493,42.4153014 L4.03849493,41.2370919 Z M4.03849493,41.2370919 L4.03849493,40.0588824 L0.178209459,40.0588824 L0.178209459,64.4085446 L13.53125,64.4085446 L13.53125,49.5516375 C13.53125,44.3087412 9.28139124,40.0588824 4.03849493,40.0588824 L4.03849493,41.2370919 Z" id="Path"></path>
                    <path d="M56.4181843,41.7331181 L56.4181843,40.6724154 C56.4181843,36.2258737 52.8129268,32.6202177 48.3670863,32.6202177 L13.7277282,32.6202177 C9.28113873,32.6202177 5.67663024,36.225523 5.67663024,40.6724154 L5.67663024,41.5659694 L8.03304916,41.5659694 L8.03304916,40.6724154 C8.03304916,37.5268206 10.5826696,34.9766367 13.7277282,34.9766367 L48.3670863,34.9766367 C51.5114542,34.9766367 54.0617654,37.5272296 54.0617654,40.6724154 L54.0617654,41.7331181 L56.4181843,41.7331181 Z" id="Stroke-5"></path>
                    <polygon id="Stroke-7" points="12.3166417 56.7377412 49.9569779 56.7377412 49.9569779 54.3813223 12.3166417 54.3813223"></polygon>
                    <polygon id="Stroke-9" points="12.3166417 62.6806454 49.9569779 62.6806454 49.9569779 60.3242265 12.3166417 60.3242265"></polygon>
                    <polygon id="Stroke-11" points="5.28334392 65.8453003 5.28334392 63.2109811 2.926925 63.2109811 2.926925 68.2017193 10.7816547 68.2017193 10.7816547 63.2109811 8.42523581 63.2109811 8.42523581 65.8453003"></polygon>
                    <polygon id="Stroke-13" points="53.6690289 65.8453003 53.6690289 63.2109811 51.31261 63.2109811 51.31261 68.2017193 59.1673397 68.2017193 59.1673397 63.2109811 56.8109208 63.2109811 56.8109208 65.8453003"></polygon>
                    <path d="M65.0436515,33.9166723 L84.994665,33.9166723 L84.994665,18.3643074 L65.0436515,18.3643074 L65.0436515,33.9166723 Z M67.4000704,20.7207264 L82.6382461,20.7207264 L82.6382461,31.5602534 L67.4000704,31.5602534 L67.4000704,20.7207264 Z" id="Path"></path>
                    <path d="M79.4606152,68.1370591 L70.575502,68.1370591 L70.575502,65.326951 C70.575502,62.8739845 72.565468,60.8849443 75.0186084,60.8849443 C77.4716618,60.8849443 79.4606152,62.8738976 79.4606152,65.326951 L79.4606152,68.1370591 Z M77.1041963,65.326951 C77.1041963,64.1753118 76.1702476,63.2413632 75.0186084,63.2413632 C73.8666369,63.2413632 72.9319209,64.1756442 72.9319209,65.326951 L72.9319209,65.7806402 L77.1041963,65.7806402 L77.1041963,65.326951 Z" id="Stroke-17"></path>
                    <polygon id="Stroke-18" points="73.8406189 32.106377 73.8406189 61.8885274 76.1970378 61.8885274 76.1970378 32.106377"></polygon>
                    <polygon id="Stroke-19" points="79.4141466 32.106377 79.4141466 38.7582334 81.7705655 38.7582334 81.7705655 32.106377"></polygon>
                    <path d="M8.42534578,24.7753378 L56.9675755,24.7753378 L56.9675755,0.425675676 L8.42534578,0.425675676 L8.42534578,24.7753378 Z M10.7817647,22.4189189 L10.7817647,2.78209459 L54.6111566,2.78209459 L54.6111566,22.4189189 L10.7817647,22.4189189 Z" id="Path"></path>
                    <polygon id="Stroke-21" points="18.6105267 2.54783514 18.6105267 22.9432693 20.9669456 22.9432693 20.9669456 2.54783514"></polygon>
                    <polygon id="Stroke-22" points="31.5181412 2.54783514 31.5181412 22.9432693 33.8745601 22.9432693 33.8745601 2.54783514"></polygon>
                    <polygon id="Stroke-23" points="44.4686426 2.54783514 44.4686426 22.9432693 46.8250615 22.9432693 46.8250615 2.54783514"></polygon>
                    <polygon id="Stroke-24" points="20.8191196 13.7705787 44.5223375 13.7705787 44.5223375 11.4141598 20.8191196 11.4141598"></polygon>
                </g>
            </g>
        </g>
    </g>
</svg>