<?xml version="1.0" encoding="UTF-8"?>
<svg width="78px" height="84px" viewBox="0 0 78 84" version="1.1" xmlns="http://www.w3.org/2000/svg" xmlns:xlink="http://www.w3.org/1999/xlink">
    <!-- Generator: sketchtool 61 (101010) - https://sketch.com -->
    <title>37ACFB59-898D-4983-8DE4-E39DC80BA7BE</title>
    <desc>Created with sketchtool.</desc>
    <g id="Website" stroke="none" stroke-width="1" fill="none" fill-rule="evenodd">
        <g id="Homepage" transform="translate(-734.000000, -859.000000)">
            <g id="UI/cards/insprations-Copy-7" transform="translate(683.000000, 832.000000)">
                <g id="icons/kitchen" transform="translate(50.406250, 27.312500)">
                    <path d="M0.713426943,82.8954368 L28.990454,82.8954368 L28.990454,52.9727377 L0.713426943,52.9727377 M3.06984586,80.5390179 L3.06984586,55.3291567 L26.6340351,55.3291567 L26.6340351,80.5390179" id="Stroke-3" fill="#666666" fill-rule="nonzero"></path>
                    <polygon id="Line" fill="#666666" fill-rule="nonzero" points="27.8122445 59.8559966 2.38321438 59.8559966 2.38321438 62.2124155 27.8122445 62.2124155"></polygon>
                    <path d="M6.60447424,77.4543381 L23.0994067,77.4543381 L23.0994067,66.5732553 L6.60447424,66.5732553 L6.60447424,77.4543381 Z M8.96089316,68.9296743 L20.7429878,68.9296743 L20.7429878,75.0979192 L8.96089316,75.0979192 L8.96089316,68.9296743 Z" id="Stroke-9" fill="#666666" fill-rule="nonzero"></path>
                    <polygon id="Path" fill="#333333" points="54.9110621 51.1673706 54.9110621 48.8109517 26.6341559 48.8109517 26.633446 53.3756029 28.9898649 53.3758446 28.9903331 51.1673706"></polygon>
                    <polygon id="Stroke-11" fill="#666666" fill-rule="nonzero" points="26.6366701 82.8943193 54.9131081 82.8310781 54.9078379 80.4746651 26.6314 80.5379063"></polygon>
                    <polygon id="Stroke-13" fill="#666666" fill-rule="nonzero" points="54.910473 60.4451014 28.9898649 60.4451014 28.9898649 62.8015203 54.910473 62.8015203"></polygon>
                    <polygon id="Stroke-13" fill="#666666" fill-rule="nonzero" points="39.59375 62.5439541 39.59375 81.6528716 41.9501689 81.6528716 41.9501689 62.5439541"></polygon>
                    <path d="M52.5546432,82.8954368 L78.4752513,82.8954368 L78.4752513,20.4503354 L52.5546432,20.4503354 L52.5546432,82.8954368 Z M54.9110621,22.8067544 L76.1188323,22.8067544 L76.1188323,80.5390179 L54.9110621,80.5390179 L54.9110621,22.8067544 Z" id="Stroke-4" fill="#666666" fill-rule="nonzero"></path>
                    <polygon id="Stroke-5" fill="#666666" fill-rule="nonzero" points="52.5546432 39.4359071 78.4752513 39.4359071 78.4752513 37.0794882 52.5546432 37.0794882"></polygon>
                    <polygon id="Fill-16" fill="#333333" points="59.6233108 33.3462838 61.9797297 33.3462838 61.9797297 27.4552365 59.6233108 27.4552365"></polygon>
                    <polygon id="Fill-17" fill="#333333" points="59.6233108 52.1976351 61.9797297 52.1976351 61.9797297 46.3065878 59.6233108 46.3065878"></polygon>
                    <polygon id="Fill-22" fill="#333333" points="38.4155405 58.0886824 44.3065878 58.0886824 44.3065878 55.7322635 38.4155405 55.7322635"></polygon>
                    <polygon id="Fill-23" fill="#333333" points="34.8809122 74.5836149 37.2373311 74.5836149 37.2373311 68.6925676 34.8809122 68.6925676"></polygon>
                    <polygon id="Fill-24" fill="#333333" points="44.3065878 74.5836149 46.6630068 74.5836149 46.6630068 68.6925676 44.3065878 68.6925676"></polygon>
                    <path d="M7.78209459,57.4995777 C7.78209459,58.149957 7.25501359,58.6777872 6.60436781,58.6777872 C5.95275668,58.6777872 5.42567568,58.149957 5.42567568,57.4995777 C5.42567568,56.8491984 5.95275668,56.3213682 6.60436781,56.3213682 C7.25501359,56.3213682 7.78209459,56.8491984 7.78209459,57.4995777" id="Fill-18" fill="#333333"></path>
                    <path d="M13.6731419,57.4995777 C13.6731419,58.149957 13.1460609,58.6777872 12.4954151,58.6777872 C11.843804,58.6777872 11.316723,58.149957 11.316723,57.4995777 C11.316723,56.8491984 11.843804,56.3213682 12.4954151,56.3213682 C13.1460609,56.3213682 13.6731419,56.8491984 13.6731419,57.4995777" id="Fill-19" fill="#333333"></path>
                    <path d="M19.5641892,57.4995777 C19.5641892,58.149957 19.0371082,58.6777872 18.3864624,58.6777872 C17.7348513,58.6777872 17.2077703,58.149957 17.2077703,57.4995777 C17.2077703,56.8491984 17.7348513,56.3213682 18.3864624,56.3213682 C19.0371082,56.3213682 19.5641892,56.8491984 19.5641892,57.4995777" id="Fill-20" fill="#333333"></path>
                    <path d="M24.277027,57.4995777 C24.277027,58.149957 23.749946,58.6777872 23.0993002,58.6777872 C22.4476891,58.6777872 21.9206081,58.149957 21.9206081,57.4995777 C21.9206081,56.8491984 22.4476891,56.3213682 23.0993002,56.3213682 C23.749946,56.3213682 24.277027,56.8491984 24.277027,57.4995777" id="Fill-21" fill="#333333"></path>
                    <path d="M9.05986275,14.2039147 L20.8419573,14.2039147 L20.8419573,0.602282574 L9.05986275,0.602282574 L9.05986275,14.2039147 Z M11.4162817,2.95870149 L18.4855384,2.95870149 L18.4855384,11.8474958 L11.4162817,11.8474958 L11.4162817,2.95870149 Z" id="Stroke-1" fill="#666666" fill-rule="nonzero"></path>
                    <path d="M0.712837838,21.4951206 L28.9898649,21.4951206 L28.9898649,17.4148539 L23.3337643,11.9748698 L6.36777982,11.9748698 L0.712837838,17.4148539 L0.712837838,21.4951206 Z M3.06925676,18.4177634 L7.31720621,14.3312887 L22.3844781,14.3312887 L26.6334459,18.4179059 L26.6334459,19.1387017 L3.06925676,19.1387017 L3.06925676,18.4177634 Z" id="Stroke-7" fill="#666666" fill-rule="nonzero"></path>
                    <path d="M30.2474856,34.177208 L30.2474856,31.6392812 C30.2474856,28.7202512 32.7210812,26.380805 35.7391199,26.380805 C38.7579765,26.380805 41.2307542,28.719919 41.2307542,31.6392812 L41.2307542,34.177208 L30.2474856,34.177208 Z M38.8743353,31.8207891 L38.8743353,31.6392812 C38.8743353,30.0515145 37.4849424,28.7372239 35.7391199,28.7372239 C33.9940222,28.7372239 32.6039046,30.051952 32.6039046,31.6392812 L32.6039046,31.8207891 L38.8743353,31.8207891 Z" id="Stroke-14" fill="#666666" fill-rule="nonzero"></path>
                    <path d="M40.3129291,23.2964596 L40.3129291,20.7585327 C40.3129291,17.8391706 42.7857068,15.5000566 45.8045633,15.5000566 C48.8232883,15.5000566 51.2950194,17.8390632 51.2950194,20.7585327 L51.2950194,23.2964596 L40.3129291,23.2964596 Z M48.9386005,20.9400407 L48.9386005,20.7585327 C48.9386005,19.1704481 47.5500679,17.8564755 45.8045633,17.8564755 C44.0587409,17.8564755 42.669348,19.1707661 42.669348,20.7585327 L42.669348,20.9400407 L48.9386005,20.9400407 Z" id="Stroke-15" fill="#666666" fill-rule="nonzero"></path>
                    <polygon id="Stroke-25" fill="#666666" fill-rule="nonzero" points="46.9828906 16.6778202 46.9828906 0.356753276 44.6264717 0.356753276 44.6264717 16.6778202"></polygon>
                    <polygon id="Stroke-26" fill="#666666" fill-rule="nonzero" points="36.9174472 27.5585686 36.9174472 0.356418919 34.5610283 0.356418919 34.5610283 27.5585686"></polygon>
                </g>
            </g>
        </g>
    </g>
</svg>