<?xml version="1.0" encoding="UTF-8"?>
<svg width="84px" height="76px" viewBox="0 0 84 76" version="1.1" xmlns="http://www.w3.org/2000/svg" xmlns:xlink="http://www.w3.org/1999/xlink">
    <!-- Generator: sketchtool 61 (101010) - https://sketch.com -->
    <title>7067EE47-C074-4D38-BE77-1315EAE901C5</title>
    <desc>Created with sketchtool.</desc>
    <g id="Website" stroke="none" stroke-width="1" fill="none" fill-rule="evenodd">
        <g id="Homepage" transform="translate(-1158.000000, -863.000000)" fill="#333333" fill-rule="nonzero">
            <g id="UI/cards/insprations-Copy-6" transform="translate(1110.000000, 832.000000)">
                <g id="Group-6" transform="translate(48.762669, 31.203547)">
                    <path d="M68.3652365,36.1794764 L14.3789059,36.1794764 C11.6581337,36.1794764 9.45360034,38.386937 9.45360034,41.1074267 L9.45360034,69.6374433 L73.2905421,69.6374433 L73.2905421,41.1074267 C73.2905421,38.3866266 71.0867371,36.1794764 68.3652365,36.1794764 Z M70.9920196,67.345095 L11.7521229,67.345095 L11.7521229,41.1074267 C11.7521229,39.6509094 12.929644,38.4718247 14.3789059,38.4718247 L68.3652365,38.4718247 C69.8151287,38.4718247 70.9920196,39.650502 70.9920196,41.1074267 L70.9920196,67.345095 Z" id="Stroke-1"></path>
                    <path d="M71.6615707,14.9533092 L11.0840245,14.9533092 C10.1831256,14.9533092 9.45432671,15.682125 9.45432671,16.5796099 L9.45432671,21.457779 C9.45432671,22.355264 10.1831256,23.0840798 11.0840245,23.0840798 L71.6615707,23.0840798 C72.5619781,23.0840798 73.2902308,22.3547217 73.2902308,21.457779 L73.2902308,16.5796099 C73.2902308,15.6826673 72.5619781,14.9533092 71.6615707,14.9533092 Z M70.9917083,20.7917315 L11.7528492,20.7917315 L11.7528492,17.2456575 L70.9917083,17.2456575 L70.9917083,20.7917315 Z" id="Stroke-3"></path>
                    <path d="M73.1554388,60.924599 C73.1554388,58.203799 70.9516338,55.9966487 68.2301332,55.9966487 L14.2438026,55.9966487 C11.5231302,55.9966487 9.31953469,58.2040082 9.31953469,60.924599 L11.6180572,60.924599 C11.6180572,59.4677866 12.7948367,58.288997 14.2438026,58.288997 L68.2301332,58.288997 C69.6800254,58.288997 70.8569163,59.4676744 70.8569163,60.924599 L73.1554388,60.924599 Z" id="Stroke-5"></path>
                    <path d="M2.29852252,51.4221459 C2.29852252,50.4203074 3.10817962,49.609618 4.1045166,49.609618 L10.4684846,49.609618 L10.4684846,47.3172697 L4.1045166,47.3172697 C1.83669656,47.3172697 3.99680289e-14,49.1563081 3.99680289e-14,51.4221459 L3.99680289e-14,69.6865991 L10.4684846,69.6865991 L10.4684846,67.3942508 L2.29852252,67.3942508 L2.29852252,51.4221459 Z" id="Stroke-7"></path>
                    <path d="M72.0061775,67.3942508 L72.0061775,69.6865991 L82.4746622,69.6865991 L82.4746622,51.4221459 C82.4746622,49.1562338 80.6389308,47.3172697 78.3711832,47.3172697 L72.0061775,47.3172697 L72.0061775,49.609618 L78.3711832,49.609618 C79.3671969,49.609618 80.1761396,50.4199852 80.1761396,51.4221459 L80.1761396,67.3942508 L72.0061775,67.3942508 Z" id="Stroke-9"></path>
                    <polygon id="Stroke-11" points="40.0883292 38.0746272 40.0883292 67.7416689 42.3868518 67.7416689 42.3868518 38.0746272"></polygon>
                    <polygon id="Stroke-13" points="18.9238562 48.4105486 21.8282662 48.4105486 21.8282662 46.1182004 18.9238562 46.1182004"></polygon>
                    <polygon id="Stroke-15" points="30.0730965 48.4105486 32.9775065 48.4105486 32.9775065 46.1182004 30.0730965 46.1182004"></polygon>
                    <polygon id="Stroke-17" points="49.6665017 48.4105486 52.5709117 48.4105486 52.5709117 46.1182004 49.6665017 46.1182004"></polygon>
                    <polygon id="Stroke-19" points="60.9141122 48.4105486 63.8185222 48.4105486 63.8185222 46.1182004 60.9141122 46.1182004"></polygon>
                    <path d="M9.60436089,67.2170081 L8.04941276,73.1263052 C7.6753107,74.1902157 8.52921496,75.3916875 9.74938635,75.3916875 L12.4649423,75.3916875 C13.0009469,75.3916875 13.5084585,75.1490803 13.844713,74.7325552 L17.847299,69.7697968 L19.1874398,68.1081723 L9.60436089,67.2170081 Z M14.7161274,69.9946613 L12.2121289,73.0993392 L10.4297783,73.0993392 L11.3319591,69.6799556 L14.7161274,69.9946613 Z" id="Stroke-21"></path>
                    <path d="M70.2604823,73.1130571 L66.4174475,68.3468678 L64.6262343,69.7834016 L68.6274508,74.7457488 C68.9677567,75.1636482 69.4734902,75.4054054 70.0076446,75.4054054 L72.7232005,75.4054054 C73.9424369,75.4054054 74.7960169,74.2057897 74.3991143,73.0574417 L73.1156658,68.171076 L70.8925386,68.7533838 L72.0406356,73.1130571 L70.2604823,73.1130571 Z" id="Stroke-23"></path>
                    <path d="M13.0348759,16.6008122 L21.5251149,16.6008122 L21.5251149,1.05406061 L13.0348759,1.05406061 L13.0348759,16.6008122 Z M15.3333984,3.3464089 L19.2265924,3.3464089 L19.2265924,14.3084639 L15.3333984,14.3084639 L15.3333984,3.3464089 Z" id="Stroke-25"></path>
                    <path d="M71.584733,12.9432227 L71.584733,12.714591 C71.584733,10.4333874 69.7368454,8.58269469 67.4542749,8.58269469 L57.2011576,8.58269469 C56.4527802,8.58269469 55.9040425,9.28468608 56.0866237,10.0085002 C56.1352187,10.2011476 56.1990951,10.3959874 56.2886655,10.637729 C56.3321788,10.755167 56.4874539,11.1577376 56.5098984,11.2171784 C56.7681429,11.9010982 56.880724,12.3556336 56.8799505,12.8270312 C56.8791792,13.2901326 56.7655824,13.7489152 56.5086289,14.4367589 C56.4831721,14.5049048 56.3300106,14.9059983 56.2876686,15.021156 C56.1984084,15.2639176 56.1350574,15.4578233 56.0868035,15.6486016 C55.9036832,16.3725928 56.4524763,17.075119 57.2011576,17.075119 L67.4542749,17.075119 C69.7368454,17.075119 71.584733,15.2244264 71.584733,12.9432227 Z M58.8240042,14.7827707 C59.060156,14.0768252 59.17737,13.4911953 59.1784699,12.8308107 C59.1795658,12.162917 59.0636066,11.5767417 58.8278367,10.875043 L67.4542749,10.875043 C68.4652369,10.875043 69.2862105,11.6972627 69.2862105,12.714591 L69.2862105,12.9432227 C69.2862105,13.960551 68.4652369,14.7827707 67.4542749,14.7827707 L58.8240042,14.7827707 Z" id="Stroke-27"></path>
                    <path d="M71.584733,6.74231527 L71.584733,6.51368357 C71.584733,4.23247993 69.7368454,2.38178725 67.4542749,2.38178725 L57.2011576,2.38178725 C56.4527802,2.38178725 55.9040425,3.08377864 56.0866237,3.80759276 C56.1352079,4.00019745 56.1990699,4.19503493 56.2886229,4.43680883 C56.3321374,4.55428841 56.4874242,4.95703644 56.509854,5.01645784 C56.7681238,5.70067279 56.8807238,6.15525259 56.8799505,6.62612218 C56.8791792,7.08921039 56.7656246,7.54785983 56.5085809,8.23619662 C56.4835061,8.30334433 56.3300683,8.70537405 56.2875746,8.82102949 C56.1983299,9.0639273 56.1349633,9.25807415 56.0867152,9.44908252 C55.9038594,10.1729869 56.4526253,10.8752508 57.2011576,10.8752508 L67.4542749,10.8752508 C69.7367718,10.8752508 71.584733,9.02359445 71.584733,6.74231527 Z M59.1784699,6.62990328 C59.1795663,5.96228163 59.0635664,5.37615897 58.827696,4.67413554 L67.4542749,4.67413554 C68.4652369,4.67413554 69.2862105,5.49635531 69.2862105,6.51368357 L69.2862105,6.74231527 C69.2862105,7.75996456 68.4649148,8.58290254 67.4542749,8.58290254 L58.8236883,8.58290254 C59.0600922,7.87627619 59.1773695,7.29058834 59.1784699,6.62990328 Z" id="Stroke-28"></path>
                    <path d="M25.4183089,16.6008122 L33.9085479,16.6008122 L33.9085479,1.05406061 L25.4183089,1.05406061 L25.4183089,16.6008122 Z M27.7168314,3.3464089 L31.6100254,3.3464089 L31.6100254,14.3084639 L27.7168314,14.3084639 L27.7168314,3.3464089 Z" id="Stroke-29"></path>
                    <path d="M31.6089878,16.6008122 L40.0992268,16.6008122 L40.0992268,1.05406061 L31.6089878,1.05406061 L31.6089878,16.6008122 Z M33.9075103,3.3464089 L37.8007043,3.3464089 L37.8007043,14.3084639 L33.9075103,14.3084639 L33.9075103,3.3464089 Z" id="Stroke-30"></path>
                    <path d="M46.3055802,7.46069873e-14 L39.1883671,3.13851016 L44.8317779,15.9731827 L51.948991,12.8346725 L46.3055802,7.46069873e-14 Z M48.9236921,11.6623157 L46.0108848,12.9467897 L42.213666,4.310867 L45.1264733,3.02639298 L48.9236921,11.6623157 Z" id="Stroke-31"></path>
                    <path d="M19.2265924,16.6008122 L27.7168314,16.6008122 L27.7168314,4.15202016 L19.2265924,4.15202016 L19.2265924,16.6008122 Z M21.5251149,6.44436845 L25.4183089,6.44436845 L25.4183089,14.3084639 L21.5251149,14.3084639 L21.5251149,6.44436845 Z" id="Stroke-32"></path>
                </g>
            </g>
        </g>
    </g>
</svg>